<svg xmlns="http://www.w3.org/2000/svg" xmlns:xlink="http://www.w3.org/1999/xlink" width="500" zoomAndPan="magnify" viewBox="0 0 375 374.999991" height="500" preserveAspectRatio="xMidYMid meet" version="1.0"><defs><g/><clipPath id="id1"><path d="M 126.464844 143.648438 L 248.527344 143.648438 L 248.527344 231.398438 L 126.464844 231.398438 Z M 126.464844 143.648438 " clip-rule="nonzero"/></clipPath></defs><g fill="#2e2c2b" fill-opacity="1"><g transform="translate(95.385557, 209.755224)"><g><path d="M -10.828125 -1.203125 L -13.390625 -1.4375 L -12.3125 -12.640625 L -9.75 -12.40625 L -10.140625 -8.3125 L 0.703125 -7.265625 L 0.40625 -4.234375 L -10.4375 -5.28125 Z M -10.828125 -1.203125 "/></g></g></g><g fill="#2e2c2b" fill-opacity="1"><g transform="translate(96.835633, 195.529028)"><g><path d="M 0.390625 -1.4375 L -12.59375 -5.046875 L -11.78125 -7.953125 L -6.359375 -6.4375 L -4.71875 -12.328125 L -10.140625 -13.84375 L -9.328125 -16.765625 L 3.65625 -13.15625 L 2.84375 -10.234375 L -2.28125 -11.65625 L -3.921875 -5.765625 L 1.203125 -4.34375 Z M 0.390625 -1.4375 "/></g></g></g><g fill="#2e2c2b" fill-opacity="1"><g transform="translate(101.936093, 178.459831)"><g><path d="M 0.65625 -1.328125 L -11.453125 -7.21875 L -6.984375 -16.4375 L -4.71875 -15.328125 L -7.875 -8.84375 L -5.234375 -7.5625 L -2.390625 -13.390625 L -0.140625 -12.296875 L -2.984375 -6.46875 L -0.296875 -5.15625 L 2.953125 -11.828125 L 5.21875 -10.734375 Z M 0.65625 -1.328125 "/></g></g></g><g fill="#2e2c2b" fill-opacity="1"><g transform="translate(109.254387, 164.419497)"><g/></g></g><g fill="#2e2c2b" fill-opacity="1"><g transform="translate(113.723244, 157.538579)"><g><path d="M -5.453125 -14.25 C -4.328125 -15.550781 -3.144531 -16.285156 -1.90625 -16.453125 C -0.675781 -16.628906 0.492188 -16.234375 1.609375 -15.265625 C 2.796875 -14.234375 3.40625 -13.078125 3.4375 -11.796875 C 3.46875 -10.515625 2.925781 -9.226562 1.8125 -7.9375 L 0.0625 -5.921875 L 2.96875 -3.40625 L 0.96875 -1.125 L -9.203125 -9.953125 Z M -0.203125 -9.5 C 0.359375 -10.144531 0.640625 -10.765625 0.640625 -11.359375 C 0.648438 -11.960938 0.367188 -12.515625 -0.203125 -13.015625 C -0.765625 -13.503906 -1.332031 -13.695312 -1.90625 -13.59375 C -2.488281 -13.5 -3.0625 -13.128906 -3.625 -12.484375 L -5.28125 -10.578125 L -1.859375 -7.59375 Z M -0.203125 -9.5 "/></g></g></g><g fill="#2e2c2b" fill-opacity="1"><g transform="translate(124.213874, 145.7759)"><g><path d="M 10.265625 -8.28125 L 7.59375 -6.125 L 3.515625 -7.765625 L 3.296875 -7.59375 L 1.109375 -5.828125 L 3.515625 -2.84375 L 1.15625 -0.9375 L -7.296875 -11.421875 L -2.75 -15.09375 C -1.382812 -16.195312 -0.0703125 -16.726562 1.1875 -16.6875 C 2.445312 -16.65625 3.539062 -16.0625 4.46875 -14.90625 C 5.125 -14.09375 5.515625 -13.265625 5.640625 -12.421875 C 5.773438 -11.585938 5.644531 -10.757812 5.25 -9.9375 Z M -3.359375 -11.359375 L -0.5 -7.8125 L 1.6875 -9.578125 C 2.34375 -10.097656 2.722656 -10.65625 2.828125 -11.25 C 2.941406 -11.851562 2.765625 -12.445312 2.296875 -13.03125 C 1.828125 -13.613281 1.296875 -13.90625 0.703125 -13.90625 C 0.109375 -13.90625 -0.515625 -13.644531 -1.171875 -13.125 Z M -3.359375 -11.359375 "/></g></g></g><g fill="#2e2c2b" fill-opacity="1"><g transform="translate(137.345175, 135.545806)"><g><path d="M 1.296875 -0.71875 L -5.203125 -12.515625 L 3.78125 -17.453125 L 5 -15.234375 L -1.328125 -11.75 L 0.078125 -9.1875 L 5.765625 -12.328125 L 6.984375 -10.125 L 1.296875 -6.984375 L 2.734375 -4.375 L 9.234375 -7.96875 L 10.453125 -5.765625 Z M 1.296875 -0.71875 "/></g></g></g><g fill="#2e2c2b" fill-opacity="1"><g transform="translate(150.897304, 128.080256)"><g><path d="M 1.421875 -0.453125 L -2.65625 -13.296875 L 0.546875 -14.3125 L 7.078125 -7.671875 L 8.515625 -16.84375 L 11.71875 -17.859375 L 15.796875 -5.015625 L 13.203125 -4.1875 L 10.453125 -12.859375 L 9.140625 -4.328125 L 7.28125 -3.734375 L 1.265625 -9.953125 L 4.015625 -1.28125 Z M 1.421875 -0.453125 "/></g></g></g><g fill="#2e2c2b" fill-opacity="1"><g transform="translate(170.979212, 122.461843)"><g><path d="M 1.46875 -0.21875 L -0.484375 -13.546875 L 2.515625 -13.984375 L 4.46875 -0.65625 Z M 1.46875 -0.21875 "/></g></g></g><g fill="#2e2c2b" fill-opacity="1"><g transform="translate(179.835195, 121.073346)"><g><path d="M 4.28125 -5.5625 C 4.289062 -4.59375 4.566406 -3.832031 5.109375 -3.28125 C 5.648438 -2.726562 6.378906 -2.453125 7.296875 -2.453125 C 8.171875 -2.453125 8.867188 -2.726562 9.390625 -3.28125 C 9.921875 -3.832031 10.179688 -4.597656 10.171875 -5.578125 L 10.171875 -13.484375 L 13.21875 -13.484375 L 13.21875 -5.578125 C 13.226562 -4.398438 12.992188 -3.375 12.515625 -2.5 C 12.035156 -1.632812 11.34375 -0.96875 10.4375 -0.5 C 9.539062 -0.03125 8.484375 0.203125 7.265625 0.203125 C 6.046875 0.203125 4.984375 -0.0234375 4.078125 -0.484375 C 3.171875 -0.953125 2.472656 -1.617188 1.984375 -2.484375 C 1.492188 -3.359375 1.242188 -4.382812 1.234375 -5.5625 L 1.234375 -13.46875 L 4.28125 -13.46875 Z M 4.28125 -5.5625 "/></g></g></g><g fill="#2e2c2b" fill-opacity="1"><g transform="translate(196.887107, 121.125006)"><g><path d="M 1.453125 0.296875 L 4.171875 -12.890625 L 7.484375 -12.203125 L 9.921875 -3.25 L 15.671875 -10.515625 L 18.953125 -9.84375 L 16.234375 3.34375 L 13.5625 2.796875 L 15.390625 -6.109375 L 10.09375 0.6875 L 8.171875 0.296875 L 5.953125 -8.0625 L 4.125 0.84375 Z M 1.453125 0.296875 "/></g></g></g><g fill="#2e2c2b" fill-opacity="1"><g transform="translate(217.176267, 126.051217)"><g/></g></g><g fill="#2e2c2b" fill-opacity="1"><g transform="translate(224.843934, 128.768441)"><g><path d="M 12.921875 9.046875 C 12.253906 9.191406 11.5625 9.210938 10.84375 9.109375 C 10.125 9.003906 9.476562 8.796875 8.90625 8.484375 C 8.113281 8.046875 7.515625 7.425781 7.109375 6.625 C 6.710938 5.820312 6.519531 4.90625 6.53125 3.875 C 5.382812 3.195312 4.488281 2.328125 3.84375 1.265625 C 3.195312 0.203125 2.859375 -0.929688 2.828125 -2.140625 C 2.804688 -3.359375 3.101562 -4.53125 3.71875 -5.65625 C 4.34375 -6.78125 5.191406 -7.65625 6.265625 -8.28125 C 7.335938 -8.90625 8.5 -9.210938 9.75 -9.203125 C 11 -9.191406 12.21875 -8.859375 13.40625 -8.203125 C 14.582031 -7.546875 15.503906 -6.6875 16.171875 -5.625 C 16.847656 -4.570312 17.207031 -3.425781 17.25 -2.1875 C 17.289062 -0.945312 17 0.234375 16.375 1.359375 C 15.65625 2.660156 14.648438 3.625 13.359375 4.25 C 12.066406 4.875 10.695312 5.070312 9.25 4.84375 C 9.445312 5.6875 9.816406 6.253906 10.359375 6.546875 C 10.640625 6.703125 11 6.796875 11.4375 6.828125 C 11.882812 6.867188 12.382812 6.851562 12.9375 6.78125 Z M 6.453125 -4.140625 C 6.078125 -3.441406 5.890625 -2.710938 5.890625 -1.953125 C 5.898438 -1.203125 6.09375 -0.503906 6.46875 0.140625 C 6.84375 0.785156 7.351562 1.289062 8 1.65625 C 8.65625 2.007812 9.34375 2.171875 10.0625 2.140625 C 10.789062 2.109375 11.476562 1.890625 12.125 1.484375 C 12.769531 1.085938 13.28125 0.539062 13.65625 -0.15625 C 14.039062 -0.832031 14.226562 -1.546875 14.21875 -2.296875 C 14.21875 -3.054688 14.035156 -3.75 13.671875 -4.375 C 13.316406 -5.007812 12.8125 -5.503906 12.15625 -5.859375 C 11.507812 -6.222656 10.8125 -6.394531 10.0625 -6.375 C 9.320312 -6.363281 8.628906 -6.15625 7.984375 -5.75 C 7.347656 -5.351562 6.835938 -4.816406 6.453125 -4.140625 Z M 6.453125 -4.140625 "/></g></g></g><g fill="#2e2c2b" fill-opacity="1"><g transform="translate(240.643716, 137.875505)"><g><path d="M 6.875 -1.5 C 6.25 -0.75 5.960938 0.0078125 6.015625 0.78125 C 6.066406 1.5625 6.445312 2.242188 7.15625 2.828125 C 7.820312 3.390625 8.53125 3.625 9.28125 3.53125 C 10.039062 3.445312 10.738281 3.03125 11.375 2.28125 L 16.453125 -3.765625 L 18.796875 -1.796875 L 13.71875 4.25 C 12.957031 5.15625 12.113281 5.785156 11.1875 6.140625 C 10.257812 6.492188 9.300781 6.5625 8.3125 6.34375 C 7.320312 6.125 6.359375 5.625 5.421875 4.84375 C 4.492188 4.0625 3.832031 3.195312 3.4375 2.25 C 3.039062 1.3125 2.929688 0.351562 3.109375 -0.625 C 3.296875 -1.613281 3.769531 -2.5625 4.53125 -3.46875 L 9.609375 -9.515625 L 11.953125 -7.546875 Z M 6.875 -1.5 "/></g></g></g><g fill="#2e2c2b" fill-opacity="1"><g transform="translate(253.611549, 149.07931)"><g><path d="M 9.28125 11.359375 L 7.234375 8.84375 L 8.578125 6.375 L 4.640625 1.546875 L 1.953125 2.390625 L -0.046875 -0.046875 L 14.09375 -4.046875 L 16.0625 -1.625 Z M 12.5625 -0.890625 L 7.171875 0.78125 L 9.859375 4.0625 Z M 12.5625 -0.890625 "/></g></g></g><g fill="#2e2c2b" fill-opacity="1"><g transform="translate(264.287043, 162.765076)"><g><path d="M 0.734375 1.296875 L 12.4375 -5.375 L 13.9375 -2.75 L 4.546875 2.609375 L 7.40625 7.640625 L 5.09375 8.953125 Z M 0.734375 1.296875 "/></g></g></g><g fill="#2e2c2b" fill-opacity="1"><g transform="translate(270.755418, 174.788614)"><g><path d="M 0.5625 1.375 L 13 -3.796875 L 14.171875 -1 L 1.734375 4.171875 Z M 0.5625 1.375 "/></g></g></g><g fill="#2e2c2b" fill-opacity="1"><g transform="translate(274.210842, 183.149687)"><g><path d="M 10.5625 -2.703125 L 13.046875 -3.375 L 15.984375 7.46875 L 13.5 8.140625 L 12.421875 4.1875 L 1.90625 7.046875 L 1.109375 4.09375 L 11.625 1.234375 Z M 10.5625 -2.703125 "/></g></g></g><g fill="#2e2c2b" fill-opacity="1"><g transform="translate(277.805945, 197.052743)"><g><path d="M 14.40625 8.390625 L 14.71875 11.4375 L 5.140625 7.484375 L 0.8125 7.921875 L 0.5 4.890625 L 4.75 4.453125 L 13.40625 -1.4375 L 13.71875 1.609375 L 8.046875 5.65625 Z M 14.40625 8.390625 "/></g></g></g><g clip-path="url(#id1)"><path fill="#ed751c" d="M 126.476562 206.527344 C 126.476562 214.765625 152.351562 223.378906 156.96875 223.378906 C 151.035156 223.816406 143.707031 222.375 138.324219 220.34375 C 147.054688 226.0625 162.039062 231.378906 187.589844 231.378906 C 211.332031 231.378906 225.949219 226.785156 234.910156 221.546875 C 232.828125 221.980469 229.75 222.179688 227.855469 221.71875 C 235.902344 220.144531 248.703125 213.371094 248.703125 206.527344 C 248.703125 204.195312 246.746094 202.058594 243.242188 200.179688 C 241.507812 194.917969 238.019531 194.746094 237.058594 194.570312 C 237.296875 194.035156 238.234375 190.199219 233.523438 187.050781 C 234.242188 190.460938 230.84375 191.246094 231.300781 195.445312 C 231.300781 195.445312 229.992188 194.4375 228.683594 193.519531 C 228.769531 195.269531 228.246094 198.765625 225.933594 201.214844 C 230.949219 169.824219 198.148438 161.257812 181.746094 161.957031 C 196.402344 157.933594 208.792969 164.578125 208.792969 164.578125 C 204.605469 157.410156 191.242188 150.488281 172.757812 155.308594 C 168.570312 156.40625 165.757812 153.78125 167.304688 150.457031 C 168.769531 147.320312 167.785156 143.636719 164.296875 143.636719 C 159.582031 143.636719 159.605469 148.140625 160.765625 149.804688 C 158.757812 149.453125 158.410156 147.308594 158.929688 146.394531 C 153.785156 146.699219 154.308594 154.5 160.28125 154.875 C 161.46875 154.875 164.058594 157.585938 164.496094 161.078125 C 158.636719 161.648438 154.128906 163.132812 150.6875 165.230469 C 154.242188 174.304688 178.125 164.996094 182.007812 188.625 C 173.019531 165.914062 153.066406 180.570312 146.0625 164.578125 C 145.457031 163.195312 145.605469 161.324219 145.613281 159.550781 C 145.625 156.742188 144.820312 153.976562 141 154.175781 C 137.953125 154.332031 135.59375 157.847656 137.773438 161.167969 C 136.378906 161.453125 134.480469 159.75 134.632812 158.285156 C 131.011719 159.550781 131.136719 165.03125 135.332031 166.152344 C 137.621094 166.765625 140.410156 166.949219 141.554688 177.722656 C 142.113281 182.984375 142.484375 201.128906 163.707031 206.984375 C 156.703125 206.8125 145.125 203.925781 141 189.761719 C 140.152344 194.746094 142.484375 199.117188 143.355469 200.078125 C 139.691406 201.128906 141.4375 195.96875 137.6875 195.269531 C 137.417969 195.222656 137.148438 195.207031 136.878906 195.226562 L 136.878906 193.082031 C 136.878906 192.101562 138.320312 191.3125 138.320312 191.3125 C 138.644531 190.722656 137.925781 190.132812 137.402344 190.328125 L 136.222656 191.378906 C 135.636719 189.410156 133.671875 187.769531 130.269531 186.984375 C 131.773438 193.476562 135.242188 191.773438 135.832031 192.691406 L 135.832031 195.46875 C 134.195312 196.09375 132.652344 197.902344 131.320312 200.523438 C 128.207031 202.320312 126.476562 204.335938 126.476562 206.527344 Z M 180.609375 205.097656 C 181.023438 205.914062 181.25 206.777344 181.292969 207.691406 C 181.332031 208.605469 181.183594 209.488281 180.84375 210.335938 C 175.1875 208.347656 178.078125 204.210938 176.539062 201.804688 C 177.421875 202.035156 178.21875 202.4375 178.929688 203.011719 C 179.640625 203.585938 180.199219 204.28125 180.609375 205.097656 Z M 191.867188 209.78125 C 193.304688 209.214844 194.742188 210.265625 194.527344 211.640625 C 194.527344 211.648438 194.527344 211.652344 194.527344 211.65625 C 195.660156 211.535156 197.273438 212.667969 196.285156 214.703125 C 197.929688 215.597656 197.363281 217.699219 195.941406 218.179688 C 196.230469 217.039062 195.050781 214.8125 193.21875 214.59375 C 193.089844 213.542969 192.476562 212.453125 190.949219 212.453125 C 190.734375 211.578125 188.421875 211.183594 187.679688 212.757812 C 186.71875 212.40625 184.582031 212.363281 183.273438 214.550781 C 181.222656 214.070312 179.390625 215.382812 179.484375 217.125 C 178.214844 215.644531 179.128906 212.191406 182.421875 212.171875 C 182.648438 211.8125 182.949219 211.535156 183.324219 211.335938 C 183.695312 211.136719 184.09375 211.042969 184.515625 211.050781 C 184.53125 211.050781 184.542969 211.054688 184.554688 211.054688 C 184.667969 210.003906 185.933594 208.777344 187.804688 209.515625 C 188.3125 208.910156 188.960938 208.613281 189.75 208.628906 C 190.179688 208.617188 190.585938 208.714844 190.964844 208.921875 C 191.34375 209.125 191.644531 209.414062 191.867188 209.785156 Z M 200.816406 205.527344 C 201.175781 205.449219 201.535156 205.414062 201.898438 205.410156 C 204.71875 205.410156 207.003906 207.605469 207.003906 210.308594 C 206.996094 211.410156 206.648438 212.394531 205.953125 213.25 C 206.007812 212.972656 206.039062 212.691406 206.042969 212.40625 C 206.042969 209.703125 203.757812 207.511719 200.9375 207.511719 C 200.574219 207.511719 200.214844 207.550781 199.859375 207.625 C 199.683594 207.378906 199.488281 207.152344 199.261719 206.945312 C 199.039062 206.742188 198.796875 206.566406 198.53125 206.417969 C 198.269531 206.265625 197.992188 206.148438 197.703125 206.0625 C 197.414062 205.972656 197.117188 205.921875 196.816406 205.898438 C 196.515625 205.878906 196.214844 205.890625 195.914062 205.9375 C 195.617188 205.984375 195.324219 206.0625 195.042969 206.175781 C 194.761719 206.285156 194.5 206.429688 194.25 206.601562 C 194 206.773438 193.773438 206.96875 193.566406 207.191406 C 193.628906 206.714844 193.773438 206.265625 194 205.84375 C 194.226562 205.421875 194.519531 205.054688 194.882812 204.738281 C 195.242188 204.425781 195.648438 204.1875 196.101562 204.023438 C 196.550781 203.859375 197.015625 203.78125 197.492188 203.789062 C 198.15625 203.785156 198.78125 203.9375 199.371094 204.246094 C 199.960938 204.554688 200.441406 204.980469 200.816406 205.527344 Z M 207.277344 204.261719 C 202.398438 203.394531 204.296875 199.652344 202.757812 197.902344 C 203.125 197.933594 203.488281 198.003906 203.839844 198.117188 C 204.195312 198.226562 204.53125 198.375 204.851562 198.558594 C 205.175781 198.742188 205.472656 198.960938 205.746094 199.210938 C 206.023438 199.457031 206.265625 199.734375 206.480469 200.035156 C 206.695312 200.339844 206.875 200.660156 207.019531 201.003906 C 207.164062 201.34375 207.273438 201.699219 207.339844 202.0625 C 207.410156 202.425781 207.4375 202.792969 207.425781 203.164062 C 207.417969 203.535156 207.367188 203.902344 207.277344 204.261719 Z M 202.335938 177.082031 C 221.003906 189.847656 217.078125 210.132812 214.027344 216.167969 L 210.1875 216.867188 C 218.125 198.15625 209.226562 183.550781 202.335938 177.082031 Z M 218.78125 212.84375 C 218.78125 212.675781 218.8125 212.511719 218.878906 212.359375 C 218.941406 212.203125 219.035156 212.066406 219.152344 211.945312 C 219.269531 211.828125 219.40625 211.738281 219.5625 211.671875 C 219.71875 211.609375 219.878906 211.578125 220.046875 211.578125 C 220.214844 211.578125 220.375 211.609375 220.53125 211.671875 C 220.6875 211.738281 220.824219 211.828125 220.941406 211.949219 C 221.058594 212.066406 221.152344 212.203125 221.214844 212.359375 C 221.28125 212.515625 221.3125 212.675781 221.3125 212.84375 C 221.3125 213.011719 221.28125 213.175781 221.214844 213.328125 C 221.152344 213.484375 221.058594 213.621094 220.941406 213.742188 C 220.824219 213.859375 220.6875 213.949219 220.53125 214.015625 C 220.375 214.078125 220.214844 214.113281 220.046875 214.113281 C 219.878906 214.113281 219.71875 214.078125 219.5625 214.015625 C 219.40625 213.953125 219.269531 213.859375 219.152344 213.742188 C 219.03125 213.621094 218.941406 213.484375 218.878906 213.328125 C 218.8125 213.171875 218.78125 213.011719 218.78125 212.84375 Z M 224.015625 202.917969 C 227.320312 202.917969 232.058594 206.234375 229.464844 212.582031 C 229.449219 212.625 229.414062 212.640625 229.371094 212.636719 C 229.328125 212.628906 229.300781 212.601562 229.296875 212.558594 C 228.839844 209.519531 226.71875 208.863281 224.191406 208.863281 C 219.042969 208.863281 219.304688 202.917969 224.015625 202.917969 Z M 235.050781 196.753906 C 238.355469 196.753906 243.09375 200.070312 240.503906 206.421875 C 240.484375 206.460938 240.453125 206.476562 240.40625 206.472656 C 240.363281 206.464844 240.335938 206.441406 240.332031 206.394531 C 239.875 203.355469 237.757812 202.703125 235.226562 202.703125 C 230.078125 202.703125 230.339844 196.757812 235.050781 196.757812 Z M 202.464844 222.898438 C 190.027344 223.800781 178.726562 222.035156 174.425781 221.722656 C 213.195312 223.6875 244.210938 214.242188 245.457031 204.507812 C 246.152344 205.25 246.480469 205.941406 246.480469 206.527344 C 246.480469 210.449219 235.753906 220.484375 202.464844 222.898438 Z M 170.203125 212.71875 C 165.527344 212.453125 165.09375 207.855469 167.910156 206.28125 C 167.648438 205.738281 167.511719 205.167969 167.492188 204.566406 C 167.46875 203.964844 167.570312 203.382812 167.792969 202.824219 C 168.050781 202.210938 168.429688 201.683594 168.929688 201.242188 C 169.429688 200.800781 170 200.488281 170.640625 200.3125 C 169.820312 201.828125 171.535156 204.132812 169.542969 205.789062 C 169.828125 205.757812 170.117188 205.75 170.402344 205.765625 C 174.113281 205.980469 179.210938 210.167969 175.851562 217.429688 C 175.832031 217.472656 175.800781 217.488281 175.753906 217.480469 C 175.710938 217.472656 175.683594 217.445312 175.683594 217.398438 C 175.386719 213.785156 173.046875 212.882812 170.203125 212.71875 Z M 162.8125 213.632812 C 162.628906 213.632812 162.449219 213.59375 162.277344 213.523438 C 162.109375 213.453125 161.957031 213.351562 161.824219 213.222656 C 161.695312 213.089844 161.59375 212.9375 161.523438 212.765625 C 161.453125 212.597656 161.417969 212.417969 161.417969 212.230469 C 161.417969 212.046875 161.453125 211.867188 161.523438 211.695312 C 161.59375 211.523438 161.695312 211.375 161.824219 211.242188 C 161.957031 211.109375 162.105469 211.007812 162.277344 210.9375 C 162.449219 210.867188 162.628906 210.832031 162.8125 210.832031 C 162.996094 210.832031 163.175781 210.867188 163.347656 210.9375 C 163.519531 211.007812 163.667969 211.109375 163.800781 211.242188 C 163.929688 211.371094 164.03125 211.523438 164.101562 211.695312 C 164.171875 211.867188 164.210938 212.046875 164.210938 212.230469 C 164.210938 212.417969 164.171875 212.59375 164.101562 212.765625 C 164.03125 212.9375 163.929688 213.089844 163.800781 213.222656 C 163.667969 213.351562 163.519531 213.453125 163.347656 213.523438 C 163.175781 213.59375 163 213.628906 162.8125 213.632812 Z M 154.394531 212.929688 C 154.238281 212.929688 154.085938 212.902344 153.941406 212.839844 C 153.796875 212.78125 153.671875 212.695312 153.5625 212.585938 C 153.449219 212.472656 153.367188 212.347656 153.304688 212.203125 C 153.246094 212.058594 153.214844 211.90625 153.214844 211.75 C 153.214844 211.59375 153.246094 211.441406 153.304688 211.296875 C 153.367188 211.152344 153.449219 211.027344 153.5625 210.914062 C 153.671875 210.804688 153.800781 210.71875 153.941406 210.660156 C 154.085938 210.601562 154.238281 210.570312 154.394531 210.570312 C 154.550781 210.570312 154.699219 210.601562 154.84375 210.660156 C 154.988281 210.71875 155.117188 210.804688 155.226562 210.917969 C 155.335938 211.027344 155.421875 211.15625 155.480469 211.300781 C 155.542969 211.445312 155.570312 211.59375 155.570312 211.75 C 155.570312 211.90625 155.542969 212.058594 155.480469 212.203125 C 155.421875 212.347656 155.335938 212.476562 155.226562 212.585938 C 155.117188 212.695312 154.988281 212.78125 154.84375 212.839844 C 154.699219 212.902344 154.550781 212.929688 154.394531 212.929688 Z M 144.730469 202.789062 C 148.027344 203.023438 152.523438 206.664062 149.496094 212.8125 C 149.472656 212.847656 149.441406 212.863281 149.398438 212.851562 C 149.355469 212.84375 149.332031 212.816406 149.328125 212.773438 C 149.085938 209.710938 147.015625 208.910156 144.492188 208.734375 C 139.355469 208.375 140.03125 202.460938 144.730469 202.789062 Z M 144.730469 202.789062 " fill-opacity="1" fill-rule="evenodd"/></g><g fill="#2e2c2b" fill-opacity="1"><g transform="translate(62.109375, 265.488791)"><g><path d="M 14.359375 -18.949219 C 12.308594 -18.976562 10.257812 -18.707031 8.207031 -18.785156 C 7.234375 -18.8125 6.261719 -18.761719 5.289062 -18.761719 C 4.292969 -18.761719 3.292969 -18.839844 2.292969 -18.785156 C 2.078125 -18.785156 1.890625 -18.761719 1.726562 -18.515625 C 1.726562 -17.03125 1.699219 -15.492188 1.726562 -13.957031 L 1.726562 -4.667969 C 1.699219 -3.15625 1.59375 -1.621094 1.648438 -0.0546875 L 9.042969 -0.0546875 C 9.042969 -2.242188 8.828125 -4.347656 8.960938 -6.476562 C 10.851562 -4.347656 12.550781 -2.132812 14.574219 -0.0546875 C 14.710938 -0.0546875 14.925781 -0.0820312 15.167969 -0.0546875 C 16.222656 0.0273438 17.273438 -0.0820312 18.328125 0.0546875 C 19.597656 0.160156 20.839844 0.160156 22.105469 0.109375 C 22.324219 0.109375 22.457031 0.0273438 22.59375 -0.242188 C 21.648438 -1.351562 20.59375 -2.402344 19.597656 -3.507812 C 18.597656 -4.617188 17.597656 -5.75 16.574219 -6.910156 C 16.898438 -6.992188 17.167969 -7.070312 17.464844 -7.179688 C 18.976562 -7.664062 20.082031 -8.664062 20.703125 -10.121094 C 21.324219 -11.5 21.324219 -12.957031 21.027344 -14.414062 C 20.621094 -16.304688 19.328125 -17.492188 17.652344 -18.246094 C 17.058594 -18.488281 16.492188 -18.8125 15.816406 -18.867188 C 15.332031 -18.921875 14.847656 -18.949219 14.359375 -18.949219 Z M 10.015625 -15.898438 C 10.769531 -15.898438 11.5 -15.953125 12.253906 -15.710938 C 12.742188 -15.574219 13.144531 -15.304688 13.414062 -14.871094 C 13.710938 -14.386719 14.007812 -13.875 13.957031 -13.226562 C 13.957031 -12.847656 14.035156 -12.46875 14.035156 -12.09375 C 14.035156 -10.742188 13.359375 -10.09375 12.199219 -9.664062 C 11.902344 -9.527344 11.554688 -9.472656 11.203125 -9.5 C 10.5 -9.527344 9.824219 -9.449219 9.042969 -9.554688 C 8.960938 -11.660156 8.878906 -13.738281 9.015625 -15.816406 C 9.367188 -16.007812 9.71875 -15.925781 10.015625 -15.898438 Z M 10.015625 -15.898438 "/></g></g></g><g fill="#2e2c2b" fill-opacity="1"><g transform="translate(85.427192, 265.488791)"><g><path d="M 13.039062 -19.21875 C 12.417969 -19.273438 11.796875 -19.246094 11.175781 -19.191406 C 10.660156 -19.136719 10.121094 -19.082031 9.609375 -18.949219 C 9.125 -18.839844 8.503906 -18.652344 8.179688 -18.542969 C 7.34375 -18.300781 6.964844 -18.058594 6.152344 -17.761719 C 5.15625 -17.355469 4.371094 -16.628906 3.726562 -15.816406 C 3.265625 -15.277344 2.859375 -14.65625 2.484375 -14.035156 C 1.96875 -13.144531 1.648438 -12.226562 1.375 -11.257812 C 1.214844 -10.636719 1.132812 -8.125 1.296875 -7.558594 C 1.511719 -6.828125 2.023438 -5.15625 2.429688 -4.507812 C 2.671875 -4.128906 2.914062 -3.726562 3.238281 -3.429688 C 3.753906 -2.914062 4.050781 -2.265625 4.695312 -1.890625 C 5.019531 -1.699219 5.34375 -1.484375 5.640625 -1.242188 C 6.128906 -0.863281 6.75 -0.753906 7.316406 -0.484375 C 7.960938 -0.136719 8.71875 -0.109375 9.421875 0.0820312 C 10.148438 0.242188 10.90625 0.242188 11.632812 0.351562 C 12.066406 0.40625 12.496094 0.378906 12.929688 0.378906 C 13.632812 0.378906 13.902344 0.351562 14.65625 0.214844 C 15.332031 0.109375 16.035156 0.109375 16.707031 -0.136719 C 17.25 -0.351562 17.789062 -0.539062 18.273438 -0.835938 C 19.136719 -1.324219 19.972656 -1.863281 20.59375 -2.671875 C 21.136719 -3.347656 21.59375 -4.074219 21.972656 -4.859375 C 22.269531 -5.507812 22.484375 -6.207031 22.671875 -6.910156 C 23.023438 -8.179688 23.1875 -9.449219 23.023438 -10.6875 C 23.023438 -11.578125 22.753906 -12.308594 22.539062 -13.0625 C 22.242188 -14.144531 21.648438 -15.0625 20.890625 -15.871094 C 20.296875 -16.519531 19.597656 -17.058594 18.867188 -17.546875 C 18.625 -17.707031 18.382812 -17.976562 18.140625 -18.058594 C 17.492188 -18.273438 16.925781 -18.679688 16.222656 -18.761719 C 15.65625 -18.839844 15.089844 -19.109375 14.496094 -19.136719 Z M 11.984375 -16.4375 C 12.390625 -16.574219 13.414062 -16.410156 13.660156 -16.085938 C 14.0625 -15.546875 14.277344 -14.980469 14.496094 -14.277344 C 14.925781 -13.335938 14.738281 -12.445312 14.925781 -11.417969 C 14.980469 -11.039062 14.980469 -10.636719 14.980469 -10.257812 C 14.980469 -9.175781 15.007812 -8.125 14.898438 -7.046875 C 14.792969 -5.964844 14.574219 -4.914062 14.277344 -3.886719 C 14.089844 -3.292969 13.710938 -2.835938 13.199219 -2.511719 C 12.847656 -2.265625 12.417969 -2.292969 11.984375 -2.457031 C 11.230469 -2.699219 10.796875 -3.265625 10.417969 -3.914062 C 9.851562 -4.886719 9.664062 -5.964844 9.449219 -7.046875 C 9.367188 -7.394531 9.367188 -7.800781 9.339844 -8.179688 C 9.285156 -8.773438 9.175781 -9.472656 9.257812 -10.066406 C 9.394531 -11.308594 9.472656 -12.417969 9.851562 -13.605469 C 10.066406 -14.226562 10.230469 -14.847656 10.582031 -15.386719 C 10.851562 -15.84375 11.445312 -16.277344 11.984375 -16.4375 Z M 11.984375 -16.4375 "/></g></g></g><g fill="#2e2c2b" fill-opacity="1"><g transform="translate(109.716577, 265.488791)"><g><path d="M 13.0625 -19.109375 C 12.308594 -19.109375 11.554688 -19.058594 10.824219 -19.058594 C 10.148438 -19.058594 9.5 -19.03125 8.828125 -19.109375 C 8.53125 -19.136719 8.234375 -19.082031 7.960938 -19.058594 C 7.53125 -18.085938 7.261719 -17.113281 6.855469 -16.195312 C 6.425781 -15.195312 6.179688 -14.144531 5.667969 -13.171875 C 5.289062 -12.46875 5.183594 -11.660156 4.886719 -10.933594 C 4.667969 -10.445312 4.5625 -9.90625 4.347656 -9.449219 C 3.859375 -8.449219 3.453125 -7.394531 3.023438 -6.371094 C 2.808594 -5.855469 2.671875 -5.34375 2.429688 -4.859375 C 2.050781 -4.15625 1.808594 -3.402344 1.566406 -2.671875 C 1.351562 -1.96875 1 -1.324219 0.730469 -0.648438 C 0.621094 -0.351562 0.675781 -0.1875 0.78125 0 C 1.621094 -0.0273438 2.429688 -0.0820312 3.375 -0.0546875 C 3.644531 -0.484375 3.777344 -1.132812 4.050781 -1.699219 C 4.347656 -2.320312 4.5625 -2.941406 4.832031 -3.617188 C 7.152344 -3.480469 9.472656 -3.804688 11.824219 -3.589844 C 12.253906 -2.375 12.765625 -1.160156 13.171875 0.0546875 C 13.414062 0.160156 13.632812 0 13.820312 0.0273438 C 15.0625 0.0546875 16.304688 0.0273438 17.546875 -0.0546875 C 18.328125 -0.109375 19.109375 0 19.894531 -0.136719 C 20.136719 -0.1875 20.460938 -0.0273438 20.648438 -0.378906 C 18.058594 -6.503906 16.007812 -12.847656 13.359375 -19.003906 C 13.308594 -19.03125 13.171875 -19.109375 13.0625 -19.109375 Z M 8.476562 -13.039062 C 9.3125 -10.824219 10.015625 -8.554688 10.851562 -6.316406 C 9.152344 -6.261719 7.503906 -6.152344 5.855469 -6.261719 C 6.773438 -8.476562 7.421875 -10.824219 8.476562 -13.039062 Z M 8.476562 -13.039062 "/></g></g></g><g fill="#2e2c2b" fill-opacity="1"><g transform="translate(131.091232, 265.488791)"><g><path d="M 7.882812 -19.246094 C 6.722656 -19.164062 5.667969 -18.8125 4.644531 -18.355469 C 4.15625 -18.140625 3.699219 -17.894531 3.320312 -17.519531 C 2.320312 -16.519531 1.753906 -15.332031 1.671875 -13.902344 C 1.59375 -12.390625 2.023438 -10.984375 3.15625 -10.015625 C 4.050781 -9.230469 4.777344 -8.234375 5.964844 -7.773438 C 6.398438 -7.585938 6.773438 -7.261719 7.179688 -7.019531 C 7.882812 -6.640625 8.582031 -6.207031 9.257812 -5.777344 C 9.90625 -5.34375 10.554688 -4.886719 11.175781 -4.371094 C 11.660156 -3.941406 11.605469 -2.808594 10.851562 -2.617188 C 9.71875 -2.292969 8.609375 -2.292969 7.53125 -2.671875 C 6.9375 -2.726562 6.234375 -3.183594 5.613281 -3.507812 C 4.886719 -3.859375 4.128906 -4.480469 3.617188 -5.128906 C 3.480469 -5.289062 3.265625 -5.425781 3.132812 -5.535156 C 2.726562 -5.558594 2.5625 -5.34375 2.402344 -5.15625 C 2.132812 -4.832031 1.890625 -4.507812 1.671875 -4.183594 C 1.511719 -3.96875 1.027344 -3.402344 1.105469 -3.210938 C 1.296875 -2.78125 1.96875 -2.320312 2.320312 -2.023438 C 3.507812 -0.972656 4.886719 -0.324219 6.398438 0.0546875 C 8.207031 0.484375 10.042969 0.484375 11.875 0.242188 C 13.46875 0.0546875 14.953125 -0.433594 16.222656 -1.429688 C 16.679688 -1.78125 17.113281 -2.1875 17.328125 -2.699219 C 17.625 -3.507812 17.867188 -4.320312 17.867188 -5.238281 C 17.816406 -6.800781 17.25 -8.097656 16.113281 -9.152344 C 15.386719 -9.878906 14.46875 -10.363281 13.660156 -11.011719 C 13.011719 -11.5 12.308594 -11.875 11.632812 -12.335938 C 10.90625 -12.820312 10.148438 -13.28125 9.421875 -13.792969 C 9.152344 -13.980469 8.90625 -14.253906 8.746094 -14.550781 C 8.339844 -15.25 8.582031 -15.898438 9.3125 -16.140625 C 9.554688 -16.222656 9.769531 -16.277344 10.015625 -16.277344 C 10.769531 -16.332031 11.472656 -16.25 12.171875 -16.007812 C 13.0625 -15.710938 13.792969 -15.195312 14.171875 -14.304688 C 14.253906 -14.144531 14.304688 -13.957031 14.550781 -13.820312 C 15.441406 -13.847656 16.410156 -13.660156 17.355469 -13.820312 C 17.410156 -14.226562 17.355469 -14.496094 17.25 -14.792969 C 17.085938 -15.144531 16.84375 -15.441406 16.65625 -15.761719 C 15.789062 -17.167969 14.65625 -18.191406 13.0625 -18.707031 C 11.390625 -19.246094 9.664062 -19.378906 7.882812 -19.246094 Z M 7.882812 -19.246094 "/></g></g></g><g fill="#2e2c2b" fill-opacity="1"><g transform="translate(149.928996, 265.488791)"><g><path d="M 17.410156 -19.003906 C 15.628906 -18.949219 13.820312 -18.949219 12.039062 -18.867188 C 9.878906 -18.785156 7.71875 -18.921875 5.535156 -18.761719 C 4.398438 -18.707031 3.238281 -18.761719 2.105469 -18.734375 C 1.78125 -18.734375 1.457031 -18.785156 1.160156 -18.625 C 0.972656 -17.789062 1.296875 -16.976562 1.078125 -16.167969 C 1.324219 -15.898438 1.621094 -15.898438 1.917969 -15.925781 C 2.617188 -16.007812 3.320312 -16.035156 4.023438 -15.980469 C 4.589844 -15.953125 5.183594 -16.007812 5.722656 -15.898438 C 5.882812 -15.738281 5.855469 -15.601562 5.855469 -15.464844 C 5.882812 -14.304688 6.046875 -13.171875 5.9375 -12.039062 C 5.855469 -11.175781 5.9375 -10.3125 5.9375 -9.472656 C 5.910156 -7.800781 5.882812 -6.152344 5.992188 -4.480469 C 6.046875 -3.238281 6.074219 -1.96875 5.910156 -0.703125 C 5.882812 -0.40625 5.855469 -0.109375 6.152344 0.0820312 C 8.53125 -0.136719 10.933594 0.136719 13.308594 -0.0273438 C 13.46875 -0.324219 13.441406 -0.566406 13.441406 -0.78125 C 13.414062 -1.351562 13.308594 -1.890625 13.335938 -2.429688 C 13.414062 -3.886719 13.359375 -5.34375 13.308594 -6.800781 C 13.28125 -7.449219 13.441406 -8.097656 13.441406 -8.746094 C 13.441406 -9.5 13.386719 -10.257812 13.359375 -11.011719 C 13.28125 -12.121094 13.335938 -13.226562 13.226562 -14.304688 C 13.199219 -14.820312 13.144531 -15.332031 13.308594 -15.871094 C 14.820312 -15.925781 16.359375 -16.085938 17.921875 -16.113281 C 18.328125 -17.03125 17.84375 -17.949219 18.03125 -18.785156 C 17.84375 -19.003906 17.625 -19.003906 17.410156 -19.003906 Z M 17.410156 -19.003906 "/></g></g></g><g fill="#2e2c2b" fill-opacity="1"><g transform="translate(168.955679, 265.488791)"><g><path d="M 12.148438 -19.246094 C 11.632812 -19.246094 11.121094 -19.136719 10.609375 -19.109375 C 9.824219 -19.058594 9.042969 -18.839844 8.285156 -18.597656 C 7.125 -18.273438 6.046875 -17.734375 5.046875 -17.085938 C 4.777344 -16.898438 4.480469 -16.761719 4.292969 -16.519531 C 3.914062 -16.085938 3.507812 -15.710938 3.183594 -15.222656 C 2.699219 -14.523438 2.214844 -13.820312 1.863281 -13.011719 C 1.753906 -12.765625 1.621094 -12.496094 1.566406 -12.226562 C 1.511719 -11.796875 1.402344 -11.363281 1.324219 -10.933594 C 1.214844 -10.390625 1.214844 -9.851562 1.214844 -9.3125 C 1.214844 -8.855469 1.324219 -8.421875 1.351562 -7.960938 C 1.375 -7.421875 1.996094 -5.289062 2.132812 -5.019531 C 2.539062 -4.128906 3.617188 -2.457031 4.15625 -2.160156 C 4.5625 -1.917969 4.914062 -1.59375 5.316406 -1.375 C 6.34375 -0.808594 7.367188 -0.324219 8.503906 -0.0546875 C 9.449219 0.160156 10.417969 0.378906 11.445312 0.351562 C 12.199219 0.351562 12.957031 0.457031 13.710938 0.40625 C 14.738281 0.296875 15.738281 0.160156 16.707031 -0.160156 C 17.679688 -0.484375 18.625 -0.917969 19.542969 -1.351562 C 20.054688 -1.59375 20.488281 -1.917969 20.972656 -2.1875 C 21.40625 -2.429688 21.433594 -2.78125 21.164062 -3.15625 C 20.890625 -3.480469 20.675781 -3.832031 20.40625 -4.128906 C 20.21875 -4.371094 20.082031 -4.644531 19.894531 -4.859375 C 19.757812 -4.886719 19.625 -4.832031 19.460938 -4.75 C 19.03125 -4.398438 18.597656 -4.050781 18.085938 -3.804688 C 17.167969 -3.347656 16.195312 -3.023438 15.222656 -2.808594 C 14.898438 -2.726562 14.550781 -2.699219 14.277344 -2.726562 C 13.710938 -2.808594 13.144531 -2.808594 12.578125 -2.96875 C 11.902344 -3.15625 11.335938 -3.480469 10.742188 -3.832031 C 10.554688 -3.941406 10.363281 -4.074219 10.230469 -4.265625 C 9.582031 -5.074219 9.070312 -5.804688 8.828125 -6.992188 C 8.71875 -7.53125 8.449219 -8.015625 8.609375 -10.417969 C 8.71875 -11.230469 8.988281 -12.148438 9.285156 -12.902344 C 9.527344 -13.46875 9.851562 -13.980469 10.257812 -14.441406 C 10.582031 -14.792969 10.796875 -15.222656 11.230469 -15.492188 C 11.605469 -15.738281 12.011719 -15.953125 12.445312 -16.085938 C 12.875 -16.222656 13.226562 -16.332031 13.765625 -16.332031 C 14.359375 -16.332031 14.898438 -16.140625 15.464844 -15.980469 C 16.382812 -15.738281 17.003906 -15.222656 17.355469 -14.332031 C 17.570312 -13.792969 17.597656 -13.765625 18.164062 -13.792969 C 18.273438 -13.820312 18.542969 -13.820312 18.625 -13.820312 C 19.191406 -13.820312 19.597656 -13.738281 20.164062 -13.765625 C 20.378906 -13.765625 20.703125 -13.710938 20.785156 -13.765625 C 20.890625 -13.820312 20.730469 -14.226562 20.703125 -14.386719 C 20.621094 -14.871094 20.40625 -15.277344 20.246094 -15.710938 C 20.164062 -15.953125 20.027344 -16.140625 19.894531 -16.359375 C 19.21875 -17.300781 18.21875 -17.84375 17.222656 -18.355469 C 15.925781 -19.003906 14.496094 -19.164062 13.039062 -19.191406 C 12.742188 -19.21875 12.445312 -19.246094 12.148438 -19.246094 Z M 12.148438 -19.246094 "/></g></g></g><g fill="#2e2c2b" fill-opacity="1"><g transform="translate(191.490833, 265.488791)"><g><path d="M 4.320312 -18.867188 C 3.480469 -18.867188 2.671875 -18.761719 1.835938 -18.734375 C 1.539062 -18.734375 1.648438 -18.03125 1.648438 -17.816406 C 1.621094 -17.140625 1.699219 -16.464844 1.648438 -15.761719 C 1.59375 -15.0625 1.648438 -14.359375 1.648438 -12.792969 C 1.753906 -12.121094 1.621094 -11.472656 1.671875 -10.796875 C 1.78125 -9.746094 1.648438 -8.691406 1.671875 -7.613281 C 1.726562 -6.667969 1.671875 -5.722656 1.726562 -4.777344 C 1.726562 -4.453125 1.78125 -4.101562 1.726562 -3.777344 C 1.699219 -3.453125 1.699219 -3.132812 1.726562 -2.808594 C 1.808594 -2.050781 1.671875 -1.324219 1.699219 -0.59375 C 1.726562 -0.160156 1.648438 -0.0273438 1.996094 0.136719 C 2.050781 0.109375 2.214844 0.0820312 2.265625 0.0820312 C 4.480469 0.0546875 6.722656 -0.0820312 8.960938 -0.0273438 C 9.125 -0.0273438 9.152344 -0.214844 9.175781 -0.269531 C 8.988281 -2.78125 9.070312 -5.238281 9.125 -7.691406 C 9.3125 -7.773438 13.171875 -7.800781 13.308594 -7.746094 C 13.308594 -7.558594 13.28125 -7.34375 13.308594 -7.125 C 13.414062 -6.289062 13.386719 -5.480469 13.359375 -4.617188 C 13.335938 -3.996094 13.28125 -3.347656 13.308594 -2.726562 C 13.335938 -1.945312 13.226562 -1.160156 13.308594 -0.40625 C 13.359375 -0.109375 13.46875 0.0820312 13.738281 0 C 14.171875 -0.0820312 14.628906 -0.0273438 15.0625 0 C 15.816406 0 16.574219 -0.0820312 17.300781 0 C 17.949219 0.0820312 18.597656 -0.0546875 19.246094 -0.0273438 C 19.675781 0 20.109375 -0.0273438 20.566406 -0.0546875 C 20.59375 -0.1875 20.703125 -0.351562 20.675781 -0.457031 C 20.59375 -1.132812 20.59375 -1.78125 20.59375 -2.457031 C 20.621094 -3.238281 20.59375 -4.023438 20.648438 -4.804688 C 20.675781 -5.910156 20.703125 -6.992188 20.703125 -8.097656 C 20.730469 -8.554688 20.59375 -8.988281 20.59375 -9.449219 C 20.621094 -10.042969 20.675781 -10.660156 20.648438 -11.28125 C 20.566406 -12.523438 20.703125 -13.738281 20.59375 -14.980469 C 20.515625 -15.789062 20.675781 -16.628906 20.621094 -17.4375 C 20.59375 -17.84375 20.703125 -18.246094 20.621094 -18.652344 C 20.351562 -18.839844 20.054688 -18.894531 19.757812 -18.839844 C 19.300781 -18.761719 18.839844 -18.839844 18.355469 -18.8125 C 17.894531 -18.785156 17.410156 -18.839844 16.953125 -18.785156 C 16.410156 -18.734375 15.871094 -18.761719 15.359375 -18.679688 C 14.683594 -18.597656 14.035156 -18.867188 13.308594 -18.652344 C 13.226562 -16.035156 13.441406 -13.441406 13.253906 -10.824219 C 13.144531 -10.824219 13.039062 -10.851562 12.957031 -10.851562 C 12.46875 -10.796875 12.011719 -10.769531 11.554688 -10.742188 L 10.390625 -10.742188 C 9.933594 -10.6875 9.664062 -10.796875 9.203125 -10.742188 C 9.230469 -10.933594 9.230469 -11.09375 9.230469 -11.257812 C 9.203125 -12.011719 9.175781 -12.742188 9.175781 -13.496094 C 9.175781 -13.632812 9.152344 -13.792969 9.152344 -13.929688 C 9.125 -14.46875 9.015625 -15.007812 9.070312 -15.546875 C 9.152344 -16.332031 9.175781 -17.113281 9.152344 -17.894531 C 9.125 -18.191406 9.152344 -18.515625 8.960938 -18.761719 C 8.878906 -18.839844 8.773438 -18.8125 8.664062 -18.8125 L 6.585938 -18.8125 C 5.832031 -18.8125 5.074219 -18.867188 4.320312 -18.867188 Z M 4.320312 -18.867188 "/></g></g></g><g fill="#2e2c2b" fill-opacity="1"><g transform="translate(213.864054, 265.488791)"><g><path d="M 8.800781 -18.949219 C 8.285156 -18.867188 7.800781 -18.839844 7.289062 -18.867188 C 6.722656 -18.894531 6.128906 -18.894531 5.535156 -18.867188 C 5.183594 -18.839844 4.832031 -18.839844 4.480469 -18.867188 C 4.050781 -18.894531 3.617188 -19.003906 3.183594 -18.894531 C 2.671875 -18.785156 2.160156 -18.894531 1.621094 -18.8125 C 1.621094 -18.785156 1.671875 -17.679688 1.671875 -17.195312 C 1.671875 -16.761719 1.621094 -16.332031 1.648438 -15.898438 C 1.648438 -15.464844 1.726562 -15.0625 1.753906 -14.628906 C 1.808594 -14.035156 1.753906 -13.414062 1.753906 -12.792969 C 1.78125 -11.957031 1.753906 -11.121094 1.753906 -10.285156 C 1.753906 -9.582031 1.699219 -8.90625 1.726562 -8.234375 C 1.753906 -6.992188 1.699219 -5.75 1.671875 -4.507812 C 1.648438 -3.832031 1.671875 -3.15625 1.726562 -2.457031 C 1.78125 -1.835938 1.699219 -1.1875 1.648438 -0.539062 C 1.648438 -0.296875 1.699219 -0.109375 1.917969 0.0273438 C 2.726562 -0.109375 3.535156 -0.0546875 4.347656 -0.0273438 C 4.886719 0 5.398438 0.0820312 5.9375 0.0546875 C 6.964844 0.0273438 7.988281 -0.136719 9.042969 -0.136719 C 9.285156 -0.136719 9.449219 -0.351562 9.367188 -0.59375 C 9.339844 -0.703125 9.3125 -0.808594 9.3125 -0.917969 C 9.3125 -1.808594 9.339844 -2.699219 9.3125 -3.5625 C 9.3125 -4.371094 9.339844 -5.183594 9.285156 -5.992188 C 9.203125 -7.152344 9.285156 -8.3125 9.3125 -9.472656 C 9.3125 -10.445312 9.339844 -11.417969 9.3125 -12.390625 C 9.285156 -12.984375 9.339844 -13.578125 9.3125 -14.171875 C 9.285156 -15.195312 9.394531 -16.25 9.339844 -17.273438 C 9.3125 -17.652344 9.3125 -18.058594 9.339844 -18.4375 C 9.367188 -18.867188 9.203125 -18.976562 8.800781 -18.949219 Z M 8.800781 -18.949219 "/></g></g></g><g fill="#2e2c2b" fill-opacity="1"><g transform="translate(224.92922, 265.488791)"><g><path d="M 12.148438 -19.246094 C 11.632812 -19.246094 11.121094 -19.136719 10.609375 -19.109375 C 9.824219 -19.058594 9.042969 -18.839844 8.285156 -18.597656 C 7.125 -18.273438 6.046875 -17.734375 5.046875 -17.085938 C 4.777344 -16.898438 4.480469 -16.761719 4.292969 -16.519531 C 3.914062 -16.085938 3.507812 -15.710938 3.183594 -15.222656 C 2.699219 -14.523438 2.214844 -13.820312 1.863281 -13.011719 C 1.753906 -12.765625 1.621094 -12.496094 1.566406 -12.226562 C 1.511719 -11.796875 1.402344 -11.363281 1.324219 -10.933594 C 1.214844 -10.390625 1.214844 -9.851562 1.214844 -9.3125 C 1.214844 -8.855469 1.324219 -8.421875 1.351562 -7.960938 C 1.375 -7.421875 1.996094 -5.289062 2.132812 -5.019531 C 2.539062 -4.128906 3.617188 -2.457031 4.15625 -2.160156 C 4.5625 -1.917969 4.914062 -1.59375 5.316406 -1.375 C 6.34375 -0.808594 7.367188 -0.324219 8.503906 -0.0546875 C 9.449219 0.160156 10.417969 0.378906 11.445312 0.351562 C 12.199219 0.351562 12.957031 0.457031 13.710938 0.40625 C 14.738281 0.296875 15.738281 0.160156 16.707031 -0.160156 C 17.679688 -0.484375 18.625 -0.917969 19.542969 -1.351562 C 20.054688 -1.59375 20.488281 -1.917969 20.972656 -2.1875 C 21.40625 -2.429688 21.433594 -2.78125 21.164062 -3.15625 C 20.890625 -3.480469 20.675781 -3.832031 20.40625 -4.128906 C 20.21875 -4.371094 20.082031 -4.644531 19.894531 -4.859375 C 19.757812 -4.886719 19.625 -4.832031 19.460938 -4.75 C 19.03125 -4.398438 18.597656 -4.050781 18.085938 -3.804688 C 17.167969 -3.347656 16.195312 -3.023438 15.222656 -2.808594 C 14.898438 -2.726562 14.550781 -2.699219 14.277344 -2.726562 C 13.710938 -2.808594 13.144531 -2.808594 12.578125 -2.96875 C 11.902344 -3.15625 11.335938 -3.480469 10.742188 -3.832031 C 10.554688 -3.941406 10.363281 -4.074219 10.230469 -4.265625 C 9.582031 -5.074219 9.070312 -5.804688 8.828125 -6.992188 C 8.71875 -7.53125 8.449219 -8.015625 8.609375 -10.417969 C 8.71875 -11.230469 8.988281 -12.148438 9.285156 -12.902344 C 9.527344 -13.46875 9.851562 -13.980469 10.257812 -14.441406 C 10.582031 -14.792969 10.796875 -15.222656 11.230469 -15.492188 C 11.605469 -15.738281 12.011719 -15.953125 12.445312 -16.085938 C 12.875 -16.222656 13.226562 -16.332031 13.765625 -16.332031 C 14.359375 -16.332031 14.898438 -16.140625 15.464844 -15.980469 C 16.382812 -15.738281 17.003906 -15.222656 17.355469 -14.332031 C 17.570312 -13.792969 17.597656 -13.765625 18.164062 -13.792969 C 18.273438 -13.820312 18.542969 -13.820312 18.625 -13.820312 C 19.191406 -13.820312 19.597656 -13.738281 20.164062 -13.765625 C 20.378906 -13.765625 20.703125 -13.710938 20.785156 -13.765625 C 20.890625 -13.820312 20.730469 -14.226562 20.703125 -14.386719 C 20.621094 -14.871094 20.40625 -15.277344 20.246094 -15.710938 C 20.164062 -15.953125 20.027344 -16.140625 19.894531 -16.359375 C 19.21875 -17.300781 18.21875 -17.84375 17.222656 -18.355469 C 15.925781 -19.003906 14.496094 -19.164062 13.039062 -19.191406 C 12.742188 -19.21875 12.445312 -19.246094 12.148438 -19.246094 Z M 12.148438 -19.246094 "/></g></g></g><g fill="#2e2c2b" fill-opacity="1"><g transform="translate(247.464375, 265.488791)"><g><path d="M 19.675781 -19.109375 C 19.273438 -19.164062 18.8125 -19.109375 18.4375 -19.003906 C 17.921875 -18.867188 17.410156 -18.707031 16.953125 -18.488281 C 16.332031 -18.164062 15.84375 -17.625 15.332031 -17.167969 C 15.0625 -16.898438 14.820312 -16.601562 14.574219 -16.332031 C 14.253906 -16.007812 13.902344 -15.683594 13.605469 -15.304688 C 13.253906 -14.871094 12.875 -14.414062 12.445312 -14.0625 C 11.851562 -13.605469 11.445312 -12.957031 10.851562 -12.496094 C 10.5 -12.199219 10.257812 -11.769531 9.878906 -11.5 C 9.527344 -11.257812 9.257812 -10.90625 8.933594 -10.582031 C 8.855469 -11.5 8.90625 -12.390625 8.878906 -13.253906 C 8.855469 -14.359375 8.855469 -15.441406 8.855469 -16.546875 C 8.855469 -17.167969 8.878906 -17.816406 8.878906 -18.460938 C 8.878906 -18.625 8.90625 -18.761719 8.828125 -18.867188 C 6.453125 -18.785156 4.074219 -18.867188 1.671875 -18.921875 C 1.621094 -18.515625 1.726562 -18.140625 1.671875 -17.789062 C 1.59375 -17.003906 1.726562 -16.222656 1.671875 -15.414062 C 1.648438 -14.953125 1.726562 -14.46875 1.726562 -13.980469 C 1.726562 -13.335938 1.648438 -12.6875 1.726562 -12.066406 C 1.808594 -11.28125 1.726562 -10.527344 1.699219 -9.746094 C 1.699219 -9.367188 1.726562 -8.988281 1.726562 -8.609375 C 1.726562 -8.179688 1.753906 -7.773438 1.699219 -7.34375 C 1.671875 -6.964844 1.621094 -6.558594 1.621094 -6.152344 C 1.621094 -5.695312 1.648438 -5.238281 1.648438 -4.777344 C 1.671875 -4.023438 1.699219 -3.238281 1.699219 -2.484375 C 1.671875 -1.808594 1.808594 -1.105469 1.671875 -0.433594 C 1.648438 -0.242188 1.78125 -0.0820312 1.996094 -0.0820312 C 2.429688 -0.0546875 2.859375 -0.0546875 3.292969 -0.0546875 C 4.480469 -0.136719 5.640625 -0.0546875 6.800781 -0.0273438 C 7.53125 -0.0273438 8.234375 0 8.90625 -0.0546875 C 9.070312 -0.1875 9.125 -0.296875 9.125 -0.457031 C 9.097656 -0.78125 9.070312 -1.132812 9.070312 -1.457031 C 9.015625 -2.511719 9.015625 -3.589844 8.988281 -4.667969 L 8.988281 -6.773438 C 9.203125 -6.722656 9.339844 -6.585938 9.472656 -6.425781 C 9.796875 -5.992188 10.066406 -5.535156 10.390625 -5.101562 C 10.796875 -4.589844 11.148438 -3.996094 11.527344 -3.429688 C 11.742188 -3.078125 12.011719 -2.753906 12.199219 -2.375 C 12.335938 -2.078125 12.550781 -1.808594 12.742188 -1.511719 C 13.011719 -1.078125 13.335938 -0.753906 13.738281 -0.1875 C 13.765625 -0.136719 13.847656 -0.0546875 13.929688 -0.0546875 C 14.144531 -0.0273438 14.332031 0 14.550781 -0.0273438 C 15.0625 -0.109375 15.464844 -0.0273438 15.980469 -0.0546875 C 16.332031 -0.0546875 16.65625 0.0546875 16.976562 0.0546875 C 18.21875 -0.0546875 19.460938 -0.0546875 20.703125 -0.0273438 C 21.054688 -0.0273438 21.917969 -0.0546875 22.027344 -0.0820312 C 22.242188 -0.136719 22.296875 -0.296875 22.1875 -0.511719 L 22.027344 -0.730469 C 21.269531 -1.59375 20.621094 -2.539062 19.894531 -3.402344 C 19.273438 -4.183594 18.707031 -5.019531 18.113281 -5.832031 C 17.570312 -6.53125 17.058594 -7.289062 16.492188 -7.988281 C 15.980469 -8.609375 15.464844 -9.257812 14.980469 -9.90625 C 14.601562 -10.390625 14.253906 -10.878906 13.902344 -11.390625 C 14.089844 -11.605469 14.386719 -11.6875 14.523438 -11.929688 C 14.710938 -12.28125 15.0625 -12.46875 15.277344 -12.765625 C 15.574219 -13.117188 15.84375 -13.523438 16.195312 -13.792969 C 16.679688 -14.171875 17.03125 -14.65625 17.519531 -15.035156 C 17.976562 -15.414062 18.4375 -15.816406 19.03125 -16.035156 C 19.757812 -16.304688 20.433594 -16.25 21.109375 -15.871094 C 21.269531 -15.898438 21.433594 -16.007812 21.40625 -16.195312 C 21.351562 -16.925781 21.433594 -17.652344 21.378906 -18.382812 C 21.214844 -18.679688 20.972656 -18.679688 20.730469 -18.867188 C 20.460938 -19.082031 20 -19.082031 19.675781 -19.109375 Z M 19.675781 -19.109375 "/></g></g></g><g fill="#2e2c2b" fill-opacity="1"><g transform="translate(270.431338, 265.488791)"><g><path d="M 17.355469 -18.894531 L 17.140625 -18.894531 C 16.277344 -18.894531 15.414062 -18.949219 14.574219 -18.867188 C 13.710938 -18.785156 12.847656 -18.894531 12.011719 -18.839844 C 11.148438 -18.761719 10.257812 -18.867188 9.394531 -18.8125 C 8.800781 -18.785156 8.179688 -18.8125 7.585938 -18.785156 C 5.882812 -18.707031 4.183594 -18.839844 2.484375 -18.761719 C 2.242188 -18.761719 2.105469 -18.8125 1.863281 -18.734375 C 1.808594 -18.652344 1.671875 -18.625 1.621094 -18.570312 C 1.648438 -18.21875 1.753906 -16.222656 1.699219 -13.683594 C 1.648438 -12.929688 1.648438 -12.171875 1.621094 -11.417969 C 1.621094 -10.660156 1.648438 -9.878906 1.648438 -9.125 C 1.648438 -8.394531 1.699219 -7.691406 1.753906 -6.964844 C 1.808594 -6.503906 1.78125 -6.046875 1.78125 -5.585938 C 1.78125 -5.019531 1.808594 -4.425781 1.753906 -3.886719 C 1.699219 -3.320312 1.699219 -2.808594 1.753906 -2.265625 C 1.808594 -1.511719 1.835938 -0.730469 1.78125 0.0273438 C 1.78125 0.136719 2.511719 0.0273438 2.753906 0.0273438 C 3.453125 0.0273438 4.128906 0.0820312 4.804688 0.136719 C 5.398438 0.160156 7.640625 0.0273438 7.960938 0.0273438 C 9.472656 0.0273438 10.984375 0.0546875 12.46875 0 C 13.632812 -0.0273438 14.792969 -0.109375 15.953125 -0.0273438 C 16.871094 0.0273438 17.761719 -0.136719 18.679688 -0.109375 C 19.058594 -0.0820312 19.246094 -0.296875 19.21875 -0.675781 L 19.21875 -2.699219 C 18.652344 -2.996094 18.113281 -2.726562 17.570312 -2.726562 C 16.679688 -2.726562 15.761719 -2.753906 14.871094 -2.644531 C 14.441406 -2.617188 13.980469 -2.699219 13.578125 -2.617188 C 12.875 -2.511719 12.199219 -2.539062 11.5 -2.484375 C 10.957031 -2.457031 10.363281 -2.484375 9.796875 -2.511719 C 9.554688 -2.539062 9.285156 -2.429688 9.070312 -2.589844 C 8.988281 -4.453125 8.828125 -6.316406 8.960938 -8.207031 L 10.957031 -8.207031 C 11.335938 -8.207031 11.714844 -8.207031 12.09375 -8.234375 C 13.0625 -8.257812 14.007812 -8.3125 14.980469 -8.3125 C 15.492188 -8.3125 16.007812 -8.339844 16.519531 -8.339844 C 16.789062 -8.339844 16.953125 -8.554688 16.953125 -8.828125 C 16.925781 -9.421875 16.898438 -10.015625 16.925781 -10.636719 C 16.953125 -11.011719 16.734375 -11.230469 16.359375 -11.257812 C 15.898438 -11.28125 15.441406 -11.257812 14.980469 -11.230469 C 14.035156 -11.203125 13.089844 -11.121094 12.148438 -11.121094 C 11.714844 -11.148438 11.28125 -11.175781 10.851562 -11.09375 C 10.230469 -11.011719 9.636719 -11.203125 9.015625 -11.121094 C 8.828125 -12.765625 9.015625 -14.550781 8.960938 -16.167969 C 12.011719 -16.4375 15.089844 -16.25 18.140625 -16.304688 C 18.164062 -16.4375 18.21875 -16.574219 18.191406 -16.707031 C 18.140625 -17.195312 18.085938 -17.679688 18.164062 -18.191406 C 18.21875 -18.707031 17.894531 -18.949219 17.355469 -18.894531 Z M 17.355469 -18.894531 "/></g></g></g><g fill="#2e2c2b" fill-opacity="1"><g transform="translate(290.456575, 265.488791)"><g><path d="M 20.296875 -18.949219 C 19.8125 -18.894531 19.328125 -18.921875 18.839844 -18.894531 C 18.542969 -18.894531 18.246094 -18.8125 17.921875 -18.734375 C 18.085938 -14.847656 17.921875 -10.984375 18.003906 -7.070312 C 14.953125 -10.796875 12.066406 -14.65625 9.175781 -18.4375 C 9.125 -18.597656 8.988281 -18.707031 8.855469 -18.839844 C 6.371094 -18.894531 4.128906 -18.652344 1.671875 -18.761719 C 1.59375 -18.515625 1.621094 -18.382812 1.621094 -18.21875 C 1.726562 -17.273438 1.726562 -16.359375 1.726562 -15.414062 C 1.726562 -14.601562 1.671875 -13.792969 1.726562 -12.984375 C 1.78125 -12.523438 1.808594 -12.066406 1.78125 -11.605469 C 1.699219 -10.769531 1.726562 -9.933594 1.753906 -9.125 C 1.808594 -7.855469 1.890625 -6.613281 1.890625 -5.34375 C 1.863281 -4.480469 1.863281 -3.644531 1.808594 -2.78125 C 1.78125 -1.945312 1.78125 -1.1875 1.78125 -0.351562 C 1.78125 -0.214844 1.78125 -0.0546875 1.945312 0.0546875 C 2.886719 -0.214844 3.886719 0.136719 4.777344 -0.160156 C 4.667969 -1.457031 4.804688 -2.726562 4.695312 -3.996094 C 4.617188 -5.261719 4.589844 -6.558594 4.535156 -7.828125 C 4.507812 -9.125 4.5625 -10.390625 4.453125 -11.6875 C 7.53125 -7.882812 10.472656 -3.996094 13.253906 0 C 13.308594 0.0546875 16.65625 -0.0273438 17.25 0 C 18.21875 0.0273438 18.894531 -0.0546875 19.867188 -0.0546875 C 20 -0.0546875 20.351562 0 20.460938 -0.0273438 C 20.675781 -0.0546875 20.757812 -0.1875 20.757812 -0.378906 C 20.757812 -0.59375 20.757812 -0.808594 20.730469 -1.027344 C 20.621094 -2.160156 20.757812 -3.265625 20.703125 -4.398438 C 20.648438 -5.074219 20.703125 -5.777344 20.675781 -6.453125 C 20.621094 -7.476562 20.59375 -8.503906 20.621094 -9.5 C 20.675781 -10.609375 20.621094 -11.714844 20.648438 -12.820312 C 20.675781 -13.605469 20.648438 -14.386719 20.621094 -15.195312 C 20.59375 -15.601562 20.566406 -16.035156 20.59375 -16.4375 C 20.648438 -17.222656 20.675781 -18.003906 20.675781 -18.785156 C 20.566406 -18.921875 20.460938 -18.976562 20.296875 -18.949219 Z M 20.296875 -18.949219 "/></g></g></g></svg>