<?xml version="1.0" encoding="iso-8859-1"?>
<!-- Generator: Adobe Illustrator 19.0.0, SVG Export Plug-In . SVG Version: 6.00 Build 0)  -->
<svg version="1.1" id="Layer_1" xmlns="http://www.w3.org/2000/svg" xmlns:xlink="http://www.w3.org/1999/xlink" x="0px" y="0px"
	 viewBox="0 0 512 512" style="enable-background:new 0 0 512 512;" xml:space="preserve">
<g>
	<g>
		<path d="M503.322,363.751H466.84h-18.973c22.909-22.971,35.984-54.165,35.812-87.27c-0.241-47.361-28.16-90.865-71.164-110.849
			c-1.937-0.89-4.249-1.718-6.87-2.462c-39.278-11.173-73.825-28.212-102.685-50.647c-28.044-21.78-61.652-33.43-97.19-33.692
			c-51.725-0.377-99.96,24.054-130.611,65.755c-1.4-0.594-2.837-1.121-4.316-1.564c-10.555-3.165-21.712-2.027-31.415,3.198
			c-9.702,5.228-16.787,13.92-19.952,24.477c-2.461,8.213-2.327,16.743,0.302,24.686c-6.564,5.187-11.369,12.237-13.831,20.45
			c-6.532,21.792,5.883,44.835,27.675,51.367c3.935,1.18,7.912,1.741,11.825,1.741c0.397,0,0.791-0.013,1.187-0.024
			c6.951,37.267,27.097,70.931,56.252,94.834H45.16H8.678c-4.793,0-8.678,3.886-8.678,8.678s3.886,8.678,8.678,8.678h27.803v9.199
			c0,23.638,19.23,42.868,42.868,42.868h353.301c23.638,0,42.868-19.231,42.868-42.868v-9.199h27.803
			c4.793,0,8.678-3.886,8.678-8.678S508.114,363.751,503.322,363.751z M96.442,199.849l18.805,5.636
			c-3.035,5.069-5.479,10.526-7.225,16.348c-1.745,5.821-2.711,11.724-2.963,17.625l-18.8-5.635
			c0.981-6.401,0.452-12.867-1.573-18.986C89.743,210.842,93.74,205.734,96.442,199.849z M38.606,250.573
			c-12.623-3.784-19.816-17.133-16.032-29.756c1.891-6.309,6.173-11.433,12.056-14.43c2.113-1.076,3.694-2.97,4.374-5.242
			c0.68-2.271,0.403-4.723-0.771-6.783c-3.265-5.738-4.022-12.373-2.131-18.682c1.833-6.115,5.938-11.151,11.558-14.179
			c3.534-1.905,7.4-2.871,11.305-2.871c2.305,0,4.624,0.338,6.894,1.017c6.115,1.833,11.151,5.938,14.179,11.558
			c3.028,5.62,3.687,12.083,1.854,18.199c-1.891,6.309-6.172,11.432-12.056,14.429c-2.113,1.076-3.694,2.97-4.374,5.242
			c-0.68,2.271-0.403,4.722,0.769,6.783c3.265,5.738,4.022,12.374,2.131,18.683C64.579,247.165,51.23,254.356,38.606,250.573z
			 M63.523,264.747c6.663-3.248,12.446-8.266,16.581-14.648l26.495,7.941c6.946,33.474,35.872,64.072,76.401,76.219
			c11.806,3.54,23.813,5.301,35.572,5.301c14.452,0,28.525-2.661,41.374-7.955c23.93-9.86,40.802-27.613,47.51-49.992
			c6.708-22.379,2.384-46.486-12.177-67.883c-14.179-20.836-36.482-36.655-62.799-44.543c-40.525-12.15-81.49-2.494-105.705,21.637
			l-26.511-7.946c0.066-6.871-1.594-13.686-4.944-19.902c-1.657-3.076-3.666-5.886-5.968-8.395
			c27.364-37.042,70.257-58.765,116.288-58.39c31.695,0.233,61.665,10.621,86.67,30.04c30.622,23.804,67.156,41.849,108.589,53.637
			c1.746,0.495,3.257,1.029,4.337,1.523c36.902,17.148,60.879,54.509,61.085,95.182c0.182,34.85-16.737,67.245-45.373,87.181H133.36
			C96.612,342.665,70.936,306.147,63.523,264.747z M124.649,226.817c8.445-28.171,38.061-45.557,72.293-45.557
			c9.93,0,20.252,1.464,30.555,4.552c22.513,6.748,41.488,20.13,53.433,37.683c11.563,16.991,15.08,35.861,9.901,53.135
			c-5.178,17.273-18.494,31.098-37.496,38.928c-19.629,8.087-42.838,8.825-65.352,2.077
			C142.168,303.9,113.756,263.159,124.649,226.817z M458.162,390.307c0,14.067-11.445,25.511-25.511,25.511H79.349
			c-14.067,0-25.511-11.445-25.511-25.511v-9.199h404.323V390.307z"/>
	</g>
</g>
<g>
	<g>
		<circle cx="397.782" cy="263.315" r="8.678"/>
	</g>
</g>
<g>
	<g>
		<circle cx="221.125" cy="211.626" r="8.678"/>
	</g>
</g>
<g>
	<g>
		<circle cx="218.684" cy="235.324" r="8.678"/>
	</g>
</g>
<g>
	<g>
		<circle cx="190.913" cy="221.438" r="8.678"/>
	</g>
</g>
<g>
	<g>
		<circle cx="426.12" cy="249.036" r="8.678"/>
	</g>
</g>
<g>
	<g>
		<circle cx="404.644" cy="235.451" r="8.678"/>
	</g>
</g>
<g>
</g>
<g>
</g>
<g>
</g>
<g>
</g>
<g>
</g>
<g>
</g>
<g>
</g>
<g>
</g>
<g>
</g>
<g>
</g>
<g>
</g>
<g>
</g>
<g>
</g>
<g>
</g>
<g>
</g>
</svg>
